<svg width="50" height="50" fill="none" xmlns="http://www.w3.org/2000/svg"><path d="M36.356 4.957H2.816A2.819 2.819 0 000 7.772v20.123a2.819 2.819 0 002.816 2.816H4.99v7.49a1.18 1.18 0 002.014.835l8.325-8.326H17a1.18 1.18 0 100-2.358s-2.215.001-2.238.003a1.174 1.174 0 00-.754.342L7.35 35.354s-.002-5.898-.005-5.928a1.18 1.18 0 00-1.175-1.074H2.816a.457.457 0 01-.457-.457V7.772c0-.252.205-.456.457-.456h33.54c.252 0 .457.205.457.456v7.72a1.18 1.18 0 002.359 0v-7.72a2.819 2.819 0 00-2.816-2.815z" fill="#4A4D4E"/><path d="M47.185 19.384H23.707A2.819 2.819 0 0020.89 22.2v13.727a2.819 2.819 0 002.816 2.816h14.698l5.955 5.955a1.18 1.18 0 002.014-.834v-5.121h.81A2.819 2.819 0 0050 35.927V22.2a2.818 2.818 0 00-2.815-2.816zm.456 16.543a.457.457 0 01-.456.457h-1.99c-.62 0-1.128.48-1.175 1.088-.003.026-.005 3.544-.005 3.544l-4.283-4.283-.013-.013a1.174 1.174 0 00-.824-.337H23.707a.457.457 0 01-.457-.456V22.2c0-.252.205-.457.457-.457h23.478c.252 0 .456.205.456.457v13.727z" fill="#4A4D4E"/><path d="M35.446 27.884a1.18 1.18 0 100 2.36 1.18 1.18 0 000-2.36zM30.32 12.755H8.851a1.18 1.18 0 000 2.359H30.32a1.18 1.18 0 100-2.36zM17 20.553H8.851a1.18 1.18 0 100 2.36H17a1.18 1.18 0 100-2.36zm12.965 7.331a1.18 1.18 0 100 2.36 1.18 1.18 0 000-2.36zm10.961 0a1.18 1.18 0 100 2.36 1.18 1.18 0 000-2.36z" fill="#4A4D4E"/></svg>