<svg width="50" height="50" fill="none" xmlns="http://www.w3.org/2000/svg"><path d="M44.691 13.152a5.315 5.315 0 00-5.309 5.31c0 1.067.318 2.061.863 2.895l-5.736 5.735a5.275 5.275 0 00-2.895-.862c-1.107 0-2.135.34-2.986.922l-5.795-5.796a5.276 5.276 0 00.862-2.895 5.315 5.315 0 00-5.309-5.309 5.315 5.315 0 00-5.309 5.31c0 1.067.318 2.06.862 2.894l-5.736 5.736a5.275 5.275 0 00-2.894-.862A5.315 5.315 0 000 31.539a5.315 5.315 0 005.309 5.309 5.315 5.315 0 005.309-5.31 5.276 5.276 0 00-.863-2.895l5.736-5.735a5.276 5.276 0 002.895.862 5.276 5.276 0 002.895-.862l5.827 5.827a5.276 5.276 0 00-.803 2.804 5.315 5.315 0 005.309 5.308 5.315 5.315 0 005.309-5.308 5.276 5.276 0 00-.862-2.895l5.736-5.736a5.276 5.276 0 002.894.862A5.315 5.315 0 0050 18.461a5.315 5.315 0 00-5.309-5.309zM5.309 34.653a3.118 3.118 0 01-3.115-3.114 3.118 3.118 0 013.115-3.115 3.118 3.118 0 013.114 3.115 3.118 3.118 0 01-3.114 3.114zm13.077-13.077a3.118 3.118 0 01-3.114-3.115 3.118 3.118 0 013.114-3.114 3.118 3.118 0 013.115 3.114 3.118 3.118 0 01-3.115 3.115zm13.228 13.077a3.118 3.118 0 01-3.115-3.114 3.118 3.118 0 013.115-3.115 3.118 3.118 0 013.114 3.115 3.118 3.118 0 01-3.114 3.114zM44.69 21.576a3.118 3.118 0 01-3.114-3.115 3.118 3.118 0 013.114-3.114 3.118 3.118 0 013.115 3.114 3.118 3.118 0 01-3.115 3.115z" fill="#4A4D4E"/><path d="M17.263 26.633a1.097 1.097 0 00-1.552 0l-2.232 2.231a1.097 1.097 0 101.552 1.552l2.232-2.232a1.097 1.097 0 000-1.552zm19.257-7.01a1.097 1.097 0 00-1.552 0l-2.232 2.232a1.097 1.097 0 001.552 1.551l2.232-2.232a1.097 1.097 0 000-1.551z" fill="#4A4D4E"/></svg>